<?xml version="1.0" encoding="utf-8"?>
<!-- Generator: Adobe Illustrator 20.1.0, SVG Export Plug-In . SVG Version: 6.00 Build 0)  -->
<svg version="1.1" xmlns="http://www.w3.org/2000/svg" xmlns:xlink="http://www.w3.org/1999/xlink" x="0px" y="0px"
	 viewBox="0 0 595.3 841.9" style="enable-background:new 0 0 595.3 841.9;" xml:space="preserve">
<style type="text/css">
	.st0{fill:url(#path7062_1_);}
	.st1{fill:url(#path7021_1_);stroke:#000000;stroke-width:4;}
	.st2{fill:#FFFFFF;stroke:#000000;stroke-width:2;}
	.st3{fill:none;stroke:#000000;stroke-width:2;}
	.st4{fill:none;stroke:#000000;stroke-width:4;}
	.st5{fill:#B5B5B5;stroke:#000000;}
	.st6{fill:#FFFFFF;stroke:#000000;}
	.st7{fill:#929292;stroke:#000000;}
</style>
<g id="Layer_2">
	<g id="layer14" inkscape:groupmode="layer" inkscape:label="Backdrop">
		
			<radialGradient id="path7062_1_" cx="482.9371" cy="470.1264" r="23.1483" gradientTransform="matrix(1.0231 -3.203984e-03 -5.324320e-03 -1.7002 -297.659 1089.8381)" gradientUnits="userSpaceOnUse">
			<stop  offset="0.116" style="stop-color:#E61F1F"/>
			<stop  offset="1" style="stop-color:#FFFFFF;stop-opacity:0"/>
		</radialGradient>
		<circle id="path7062" class="st0" cx="193.9" cy="289" r="31.1"/>
	</g>
	<g id="layer13" inkscape:groupmode="layer" inkscape:label="Base">
		
			<linearGradient id="path7021_1_" gradientUnits="userSpaceOnUse" x1="203.5949" y1="522.8408" x2="335.8092" y2="469.6265" gradientTransform="matrix(0.8 0 0 -0.8 -1.4 678.6)">
			<stop  offset="0" style="stop-color:#BEBEBE"/>
			<stop  offset="1" style="stop-color:#FFFFFF"/>
		</linearGradient>
		<path id="path7021" class="st1" d="M231.9,208.1c-19.5,0.1-36.1,29.3-38.9,68.7c2.1,3.3,3.2,7.2,3.2,11.2c0,4-1.2,7.9-3.3,11.3
			c2.6,40,19.3,69.9,39,70c21.8,0,39.4-36.1,39.4-80.6c0,0,0,0,0,0C271.4,244.2,253.7,208.1,231.9,208.1
			C231.9,208.1,231.9,208.1,231.9,208.1z"/>
		<path id="path7023" inkscape:connector-curvature="0" sodipodi:nodetypes="ccccc" class="st2" d="M204.2,345.6V249
			c7.3-18,43.5-19.7,54,0l0.1,96.3C247.6,379.6,213.8,371.9,204.2,345.6z"/>
		<path id="path7078" inkscape:connector-curvature="0" class="st3" d="M238.2,228.4l4.6-6v-36"/>
	</g>
</g>
<g id="Layer_3">
	<g>
		<g id="layer15" inkscape:groupmode="layer" inkscape:label="Left leg">
			<path id="path7081" inkscape:connector-curvature="0" sodipodi:nodetypes="cc" class="st4" d="M256.8,350.1
				c36.4,12.9,42.5-12.9,47-33.4"/>
		</g>
		<polygon class="st5" points="327.3,347.2 345.9,447.7 343.8,454.9 352.1,473.3 350.9,447.2 331,346.8 		"/>
		<path id="path7083" inkscape:connector-curvature="0" sodipodi:nodetypes="cccc" class="st6" d="M285.6,306.5
			c17.2,9.7,29.7,26.5,37.8,42.3h3.9H339C327.3,331.9,307.9,312.9,285.6,306.5z"/>
	</g>
	<g>
		<path class="st6" d="M229.7,359.1c-39-16.4-58.2,1.7-58.2,1.7s11.5,4.6,17.2,6.9C192.7,361.5,207.6,358.2,229.7,359.1z"/>
		<polygon class="st7" points="176,362.6 119.5,445.8 107.7,474.8 130.7,450.8 184.5,366 		"/>
	</g>
</g>
</svg>
